<svg width="15" height="14" viewBox="0 0 15 14" fill="none" xmlns="http://www.w3.org/2000/svg">
<path d="M1.2 13H13.2M8.3896 2.54114C8.3896 2.54114 8.3896 3.63089 9.47935 4.72064C10.5691 5.81039 11.6589 5.81039 11.6589 5.81039M4.07975 10.992L6.36822 10.6651C6.69833 10.618 7.00423 10.465 7.24002 10.2292L12.7486 4.72064C13.3505 4.11879 13.3505 3.14299 12.7486 2.54114L11.6589 1.45139C11.057 0.849537 10.0812 0.849537 9.47936 1.45139L3.97077 6.95997C3.73498 7.19576 3.58203 7.50167 3.53487 7.83177L3.20795 10.1202C3.1353 10.6288 3.5712 11.0647 4.07975 10.992Z" stroke="white" stroke-width="1" stroke-linecap="round"/>
</svg>
