<svg width="10" height="11" viewBox="0 0 10 11" fill="none" xmlns="http://www.w3.org/2000/svg">
<path d="M8.53004 5.46779L9.02418 5.04596C9.37963 4.74252 9.37963 4.25054 9.02418 3.9471L8.53004 3.52527M8.82387 5.37066L5.41063 5.37066M0.290771 7.92815V3.07185M7.11725 7.92815C7.11725 8.46456 6.60786 8.8994 5.9795 8.8994H3.70401M7.11725 3.07185C7.11725 2.53544 6.60786 2.1006 5.9795 2.1006H3.70401M0.79741 9.18774L1.93516 9.83524C2.69125 10.2655 3.70401 9.80285 3.70401 9.02711V1.97289C3.70401 1.19715 2.69125 0.734453 1.93516 1.16476L0.79741 1.81226C0.48089 1.9924 0.290771 2.29565 0.290771 2.6204V8.3796C0.290771 8.70435 0.48089 9.0076 0.79741 9.18774Z" stroke="white" stroke-width="1" stroke-linecap="round"/>
</svg>
