<svg width="15" height="14" viewBox="0 0 15 14" fill="none" xmlns="http://www.w3.org/2000/svg">
<path d="M6.01968 1.76285C6.5025 0.745719 7.8975 0.745717 8.38031 1.76285L9.21473 3.52071C9.40646 3.92461 9.77706 4.20456 10.2058 4.26933L12.0716 4.55122C13.1512 4.71432 13.5823 6.09373 12.8011 6.88545L11.4509 8.25375C11.1407 8.56815 10.9992 9.02112 11.0724 9.46505L11.3911 11.3971C11.5755 12.5151 10.447 13.3676 9.48134 12.8398L7.81249 11.9276C7.42904 11.718 6.97095 11.718 6.5875 11.9276L4.91866 12.8398C3.95303 13.3676 2.82445 12.5151 3.00887 11.3971L3.32759 9.46505C3.40082 9.02112 3.25926 8.56815 2.94905 8.25375L1.59892 6.88545C0.817717 6.09373 1.24879 4.71432 2.32839 4.55122L4.19422 4.26933C4.62293 4.20456 4.99354 3.92461 5.18526 3.52071L6.01968 1.76285Z" stroke="white" stroke-width="0.5" stroke-linejoin="round"/>
</svg>
