<svg width="11" height="11" viewBox="0 0 11 11" fill="none" xmlns="http://www.w3.org/2000/svg">
<path d="M0.5 2.49033C0.361929 2.49033 0.25 2.60226 0.25 2.74033C0.25 2.8784 0.361929 2.99033 0.5 2.99033V2.49033ZM10.5 2.99033C10.6381 2.99033 10.75 2.8784 10.75 2.74033C10.75 2.60226 10.6381 2.49033 10.5 2.49033V2.99033ZM1.61111 2.74033V2.49033H1.36111V2.74033H1.61111ZM9.38889 2.74033H9.63889V2.49033H9.38889V2.74033ZM9.02324 8.1835L9.26343 8.25284L9.02324 8.1835ZM6.45775 10.4196L6.49941 10.6661L6.49941 10.6661L6.45775 10.4196ZM4.54223 10.4196L4.58388 10.1731L4.58388 10.1731L4.54223 10.4196ZM4.45459 10.4048L4.41294 10.6513L4.41294 10.6513L4.45459 10.4048ZM1.97675 8.18348L1.73656 8.25282L1.73656 8.25282L1.97675 8.18348ZM6.5454 10.4048L6.50375 10.1583L6.50375 10.1583L6.5454 10.4048ZM3.1903 1.88299L3.41723 1.98789L3.41723 1.98789L3.1903 1.88299ZM3.73223 1.15618L3.56539 0.969996L3.56539 0.969996L3.73223 1.15618ZM4.54329 0.670535L4.63029 0.904909L4.63029 0.904909L4.54329 0.670535ZM6.45671 0.670535L6.54371 0.436161L6.54371 0.436161L6.45671 0.670535ZM7.8097 1.88299L8.03663 1.7781L8.03663 1.7781L7.8097 1.88299ZM4.63889 5.5C4.63889 5.36193 4.52696 5.25 4.38889 5.25C4.25082 5.25 4.13889 5.36193 4.13889 5.5H4.63889ZM4.13889 7.72222C4.13889 7.86029 4.25082 7.97222 4.38889 7.97222C4.52696 7.97222 4.63889 7.86029 4.63889 7.72222H4.13889ZM6.86111 5.5C6.86111 5.36193 6.74918 5.25 6.61111 5.25C6.47304 5.25 6.36111 5.36193 6.36111 5.5H6.86111ZM6.36111 7.72222C6.36111 7.86029 6.47304 7.97222 6.61111 7.97222C6.74918 7.97222 6.86111 7.86029 6.86111 7.72222H6.36111ZM0.5 2.99033H10.5V2.49033H0.5V2.99033ZM6.50375 10.1583L6.4161 10.1731L6.49941 10.6661L6.58706 10.6513L6.50375 10.1583ZM4.58388 10.1731L4.49625 10.1583L4.41294 10.6513L4.50057 10.6661L4.58388 10.1731ZM9.13889 2.74033V5.59768H9.63889V2.74033H9.13889ZM1.86111 5.5977V2.74033H1.36111V5.5977H1.86111ZM9.13889 5.59768C9.13889 6.44927 9.01908 7.29654 8.78305 8.11416L9.26343 8.25284C9.51248 7.39011 9.63889 6.49616 9.63889 5.59768H9.13889ZM6.4161 10.1731C5.80959 10.2756 5.19039 10.2756 4.58388 10.1731L4.50057 10.6661C5.16223 10.778 5.83775 10.778 6.49941 10.6661L6.4161 10.1731ZM4.49625 10.1583C3.4114 9.975 2.52501 9.18133 2.21694 8.11415L1.73656 8.25282C2.09741 9.50286 3.13688 10.4357 4.41294 10.6513L4.49625 10.1583ZM2.21694 8.11415C1.98092 7.29653 1.86111 6.44928 1.86111 5.5977H1.36111C1.36111 6.49616 1.48751 7.3901 1.73656 8.25282L2.21694 8.11415ZM6.58706 10.6513C7.86311 10.4357 8.90257 9.50287 9.26343 8.25284L8.78305 8.11416C8.47498 9.18133 7.58859 9.97499 6.50375 10.1583L6.58706 10.6513ZM3.25 2.74033C3.25 2.48301 3.30651 2.22742 3.41723 1.98789L2.96337 1.7781C2.82282 2.08219 2.75 2.40924 2.75 2.74033H3.25ZM3.41723 1.98789C3.528 1.74825 3.69122 1.52862 3.89908 1.34236L3.56539 0.969996C3.30895 1.1998 3.10388 1.47412 2.96337 1.7781L3.41723 1.98789ZM3.89908 1.34236C4.10698 1.15605 4.35524 1.007 4.63029 0.904909L4.45629 0.43616C4.12471 0.559241 3.82178 0.74024 3.56539 0.969996L3.89908 1.34236ZM4.63029 0.904909C4.90535 0.802811 5.20095 0.75 5.5 0.75V0.25C5.14245 0.25 4.78787 0.313085 4.45629 0.43616L4.63029 0.904909ZM5.5 0.75C5.79906 0.75 6.09466 0.802811 6.36971 0.90491L6.54371 0.436161C6.21214 0.313085 5.85756 0.25 5.5 0.25V0.75ZM6.36971 0.90491C6.64476 1.007 6.89302 1.15605 7.10092 1.34236L7.43461 0.969997C7.17822 0.74024 6.87529 0.559241 6.54371 0.436161L6.36971 0.90491ZM7.10092 1.34236C7.30878 1.52862 7.472 1.74825 7.58277 1.98789L8.03663 1.7781C7.89612 1.47412 7.69105 1.1998 7.43461 0.969997L7.10092 1.34236ZM7.58277 1.98789C7.69349 2.22742 7.75 2.48301 7.75 2.74033H8.25C8.25 2.40924 8.17719 2.08219 8.03663 1.7781L7.58277 1.98789ZM1.61111 2.99033H9.38889V2.49033H1.61111V2.99033ZM4.13889 5.5V7.72222H4.63889V5.5H4.13889ZM6.36111 5.5V7.72222H6.86111V5.5H6.36111Z" fill="white"/>
</svg>
